<svg xmlns="http://www.w3.org/2000/svg" xmlns:xlink="http://www.w3.org/1999/xlink" viewBox="0,0,255.99609,255.99609" width="30px" height="30px" fill-rule="nonzero"><g fill="#5f6165" fill-rule="nonzero" stroke="none" stroke-width="1" stroke-linecap="butt" stroke-linejoin="miter" stroke-miterlimit="10" stroke-dasharray="" stroke-dashoffset="0" font-family="none" font-weight="none" font-size="none" text-anchor="none" style="mix-blend-mode: normal"><g transform="scale(8,8)"><path d="M15.98047,2.89258c-2.57024,0 -4.81967,0.33625 -6.5918,0.89453c-1.77212,0.55828 -3.11374,1.26994 -3.78906,2.45117c-0.00131,0.0013 -0.00261,0.0026 -0.00391,0.00391l-2.28516,4.04102c-0.08835,0.15653 -0.13288,0.33398 -0.12891,0.51367c-0.08449,0.30205 -0.18164,0.6014 -0.18164,0.9375c0,1.27551 0.71152,2.35167 1.7207,2.99414c-0.16065,2.92507 0.03918,5.85118 0.63672,8.77148c0.00126,0.00522 0.00256,0.01043 0.00391,0.01563c0.21918,0.98971 0.79278,1.87696 1.51563,2.61328c0.72285,0.73632 1.60048,1.32897 2.5918,1.56445c0.00585,0.00136 0.01171,0.00266 0.01758,0.00391c4.33637,0.95194 8.69097,0.95194 13.02734,0c0.00587,-0.00125 0.01173,-0.00255 0.01758,-0.00391c0.99091,-0.23554 1.86904,-0.82823 2.5918,-1.56445c0.72275,-0.73622 1.29584,-1.62196 1.51563,-2.61133c0.00135,-0.00585 0.00266,-0.01171 0.00391,-0.01758c0.59729,-2.91803 0.78895,-5.84214 0.62891,-8.76562c1.01453,-0.64141 1.73047,-1.72043 1.73047,-3c0.00001,-0.00195 0.00001,-0.00391 0,-0.00586c-0.002,-0.33435 -0.09786,-0.63469 -0.18359,-0.9375c0.00233,-0.1779 -0.04285,-0.35319 -0.13086,-0.50781l-2.41406,-4.24609l-0.00195,-0.00195c-0.69509,-1.23947 -2.0974,-1.89213 -3.86719,-2.38477c-1.77094,-0.49296 -3.97854,-0.75781 -6.42383,-0.75781zM15.98047,4.89258c2.29871,0 4.35616,0.25755 5.88672,0.68359c1.53056,0.42604 2.46483,1.08854 2.66016,1.4375c0.00129,0.00261 0.00259,0.00521 0.00391,0.00781l2.35352,4.13867c0.07233,0.18613 0.11551,0.3753 0.11719,0.57617c-0.001,0.89969 -0.7094,1.60742 -1.60937,1.60742c-0.64696,0 -1.18425,-0.37551 -1.44531,-0.92187c-0.16612,-0.34758 -0.51711,-0.56885 -0.90234,-0.56885c-0.38524,0 -0.73623,0.22127 -0.90234,0.56885c-0.26102,0.54565 -0.799,0.92188 -1.44531,0.92188c-0.64696,0 -1.18425,-0.37551 -1.44531,-0.92187c-0.16612,-0.34758 -0.51711,-0.56885 -0.90234,-0.56885c-0.38524,0 -0.73623,0.22127 -0.90234,0.56885c-0.26102,0.54565 -0.799,0.92188 -1.44531,0.92188c-0.64696,0 -1.18621,-0.37551 -1.44726,-0.92187c-0.16612,-0.34758 -0.51711,-0.56885 -0.90234,-0.56885c-0.38524,0 -0.73623,0.22127 -0.90234,0.56885c-0.26102,0.54565 -0.799,0.92188 -1.44531,0.92188c-0.64696,0 -1.18425,-0.37551 -1.44531,-0.92187c-0.16612,-0.34758 -0.51711,-0.56885 -0.90234,-0.56885c-0.38524,0 -0.73623,0.22127 -0.90234,0.56885c-0.26101,0.54565 -0.799,0.92188 -1.44531,0.92188c-0.90063,0 -1.60937,-0.70874 -1.60937,-1.60937c0,-0.19803 0.04246,-0.38813 0.11523,-0.57812l2.2207,-3.92578c0.19768,-0.34577 1.12917,-1.05469 2.6543,-1.53516c1.52513,-0.48047 3.59647,-0.80273 5.99023,-0.80273zM13.65234,14.30859c0.64131,0.59073 1.41278,1.03516 2.34961,1.03516c0.93742,0 1.70651,-0.44434 2.34766,-1.03516c0.64123,0.59037 1.41115,1.03516 2.34766,1.03516c0.93709,0 1.70658,-0.4447 2.34766,-1.03516c0.61174,0.5635 1.34428,0.96834 2.23047,1c0.10423,2.59251 -0.05942,5.18328 -0.58984,7.7793c-0.1062,0.47336 -0.4799,1.12078 -0.99023,1.64063c-0.51034,0.51985 -1.15027,0.90414 -1.62305,1.01758c-0.65336,0.14311 -1.30453,0.11786 -1.95703,0.21484c0.40443,-2.07607 0.41376,-4.23157 -0.06055,-6.29102c0.00248,-0.1238 -0.01805,-0.24698 -0.06055,-0.36328c-0.00985,-0.02782 -0.02093,-0.05519 -0.0332,-0.08203c-0.00129,-0.00326 -0.00259,-0.00652 -0.00391,-0.00977c-0.005,-0.01116 -0.01021,-0.02223 -0.01562,-0.0332c-0.00193,-0.00327 -0.00389,-0.00652 -0.00586,-0.00977c-0.17792,-0.3431 -0.53759,-0.55297 -0.92383,-0.53906c-1.93184,-0.76049 -4.06402,-0.75644 -5.99414,0.00195c-0.45176,-0.0291 -0.86674,0.24888 -1.01172,0.67773c-0.00882,0.02507 -0.01664,0.05048 -0.02344,0.07617c-0.00134,0.0052 -0.00265,0.01041 -0.00391,0.01563c-0.02192,0.08548 -0.03243,0.17348 -0.03125,0.26172c-0.47556,2.06116 -0.46731,4.21691 -0.0625,6.29492c-0.6525,-0.09698 -1.30368,-0.07174 -1.95703,-0.21484c-0.47333,-0.11349 -1.1128,-0.49783 -1.62305,-1.01758c-0.51024,-0.51975 -0.88444,-1.16761 -0.99023,-1.64062c-0.53019,-2.59583 -0.69963,-5.18614 -0.5957,-7.77734c0.88922,-0.02967 1.62493,-0.43554 2.23828,-1c0.64111,0.58978 1.41168,1.0332 2.34766,1.0332c0.93709,0 1.70658,-0.4447 2.34766,-1.03516zM16,19.98047c0.73875,-0.0012 1.45595,0.21044 2.15039,0.46484c0.38251,1.88456 0.39465,3.87655 -0.06055,5.73828c-1.39236,0.10518 -2.78733,0.10518 -4.17969,0c-0.45486,-1.86037 -0.44217,-3.84906 -0.06055,-5.73242c0.69323,-0.25722 1.41063,-0.46946 2.15039,-0.4707z"></path></g></g></svg>