<svg xmlns="http://www.w3.org/2000/svg" xmlns:xlink="http://www.w3.org/1999/xlink" viewBox="0,0,255.99609,255.99609" width="30px" height="30px" fill-rule="nonzero"><g fill="#5f6165" fill-rule="nonzero" stroke="none" stroke-width="1" stroke-linecap="butt" stroke-linejoin="miter" stroke-miterlimit="10" stroke-dasharray="" stroke-dashoffset="0" font-family="none" font-weight="none" font-size="none" text-anchor="none" style="mix-blend-mode: normal"><g transform="scale(4,4)"><path d="M43.74219,12.58594c-0.64201,0.0004 -1.27195,0.30961 -1.6582,0.88086c-0.618,0.915 -0.37789,2.15934 0.53711,2.77734c5.247,3.544 8.37891,9.43386 8.37891,15.75586c0,6.253 -3.07933,12.10716 -8.23633,15.66016c-0.909,0.626 -1.13772,1.87225 -0.51172,2.78125c0.388,0.564 1.01244,0.86523 1.64844,0.86523c0.391,0 0.78681,-0.11552 1.13281,-0.35352c6.241,-4.299 9.9668,-11.38412 9.9668,-18.95312c0,-7.652 -3.78967,-14.78031 -10.13867,-19.07031c-0.34425,-0.23212 -0.73393,-0.34399 -1.11914,-0.34375zM20.08203,12.69141c-0.38509,0.00352 -0.77398,0.11997 -1.11523,0.35547c-6.241,4.299 -9.9668,11.38413 -9.9668,18.95313c0,7.569 3.7258,14.65413 9.9668,18.95313c0.347,0.239 0.74181,0.35352 1.13281,0.35352c0.635,0 1.25944,-0.30223 1.64844,-0.86523c0.626,-0.909 0.39728,-2.15525 -0.51172,-2.78125c-5.157,-3.553 -8.23633,-9.40716 -8.23633,-15.66016c0,-6.253 3.07933,-12.10716 8.23633,-15.66016c0.909,-0.626 1.13772,-1.87225 0.51172,-2.78125c-0.3925,-0.56937 -1.0242,-0.87306 -1.66602,-0.86719zM38.71094,20.04883c-0.64187,0.0004 -1.27195,0.30961 -1.6582,0.88086c-0.618,0.915 -0.37889,2.15934 0.53711,2.77734c2.762,1.865 4.41016,4.96597 4.41016,8.29297c0,3.291 -1.62194,6.37219 -4.33594,8.24219c-0.909,0.627 -1.13772,1.8732 -0.51172,2.7832c0.388,0.563 1.01244,0.86523 1.64844,0.86523c0.39,0 0.78581,-0.11552 1.13281,-0.35352c3.798,-2.617 6.06641,-6.93011 6.06641,-11.53711c0,-4.658 -2.30687,-8.99642 -6.17187,-11.60742c-0.34313,-0.23212 -0.73207,-0.34399 -1.11719,-0.34375zM25.17969,20.10938c-0.38509,0.00345 -0.77203,0.11802 -1.11328,0.35352c-3.798,2.617 -6.06641,6.93011 -6.06641,11.53711c0,4.607 2.26841,8.92011 6.06641,11.53711c0.347,0.239 0.74181,0.35352 1.13281,0.35352c0.636,0 1.26139,-0.30323 1.65039,-0.86523c0.626,-0.91 0.39533,-2.1572 -0.51367,-2.7832c-2.715,-1.87 -4.33594,-4.95119 -4.33594,-8.24219c0,-3.291 1.62194,-6.37219 4.33594,-8.24219c0.909,-0.627 1.13772,-1.8732 0.51172,-2.7832c-0.3925,-0.56813 -1.02615,-0.87099 -1.66797,-0.86523zM32,27c-2.757,0 -5,2.243 -5,5c0,2.757 2.243,5 5,5c2.757,0 5,-2.243 5,-5c0,-2.757 -2.243,-5 -5,-5z"></path></g></g></svg>