<svg xmlns="http://www.w3.org/2000/svg" xmlns:xlink="http://www.w3.org/1999/xlink" viewBox="0,0,255.99609,255.99609" width="30px" height="30px" fill-rule="nonzero"><g fill="#5f6165" fill-rule="nonzero" stroke="none" stroke-width="1" stroke-linecap="butt" stroke-linejoin="miter" stroke-miterlimit="10" stroke-dasharray="" stroke-dashoffset="0" font-family="none" font-weight="none" font-size="none" text-anchor="none" style="mix-blend-mode: normal"><g transform="scale(5.12,5.12)"><path d="M40.843,22.134c0.668,0.115 1.157,0.695 1.157,1.373v2.985c0,0.678 -0.489,1.258 -1.157,1.373l-2.777,0.478c-0.321,1.258 -0.816,2.443 -1.462,3.531l1.626,2.301c0.391,0.554 0.327,1.31 -0.153,1.789l-2.111,2.111c-0.538,0.517 -1.277,0.521 -1.789,0.153l-2.301,-1.626c-1.088,0.646 -2.273,1.141 -3.531,1.462l-0.478,2.777c-0.116,0.67 -0.696,1.159 -1.375,1.159h-2.985c-0.678,0 -1.258,-0.489 -1.373,-1.157l-0.478,-2.777c-1.258,-0.321 -2.443,-0.816 -3.531,-1.462l-2.301,1.626c-0.534,0.381 -1.283,0.343 -1.789,-0.153l-2.111,-2.111c-0.48,-0.48 -0.544,-1.235 -0.153,-1.789l1.626,-2.301c-0.646,-1.088 -1.141,-2.273 -1.462,-3.531l-2.777,-0.478c-0.669,-0.116 -1.158,-0.696 -1.158,-1.375v-2.985c0,-0.678 0.489,-1.258 1.157,-1.373l2.777,-0.478c0.321,-1.258 0.816,-2.443 1.462,-3.531l-1.626,-2.301c-0.391,-0.554 -0.327,-1.31 0.153,-1.789l2.111,-2.111c0.596,-0.579 1.369,-0.456 1.789,-0.153l2.301,1.626c1.088,-0.646 2.273,-1.141 3.531,-1.462l0.478,-2.777c0.116,-0.669 0.696,-1.158 1.375,-1.158h2.985c0.678,0 1.258,0.489 1.373,1.157l0.478,2.777c1.258,0.321 2.443,0.816 3.531,1.462l2.301,-1.626c0.617,-0.414 1.351,-0.282 1.789,0.153l2.111,2.111c0.48,0.48 0.544,1.235 0.153,1.789l-1.626,2.301c0.646,1.088 1.141,2.273 1.462,3.531zM25,31.955c3.841,0 6.955,-3.114 6.955,-6.955c0,-3.841 -3.114,-6.955 -6.955,-6.955c-3.841,0 -6.955,3.114 -6.955,6.955c0,3.841 3.114,6.955 6.955,6.955z"></path></g></g></svg>