<svg xmlns="http://www.w3.org/2000/svg" xmlns:xlink="http://www.w3.org/1999/xlink" viewBox="0,0,255.99609,255.99609" width="30px" height="30px" fill-rule="nonzero"><g fill="#5f6165" fill-rule="nonzero" stroke="none" stroke-width="1" stroke-linecap="butt" stroke-linejoin="miter" stroke-miterlimit="10" stroke-dasharray="" stroke-dashoffset="0" font-family="none" font-weight="none" font-size="none" text-anchor="none" style="mix-blend-mode: normal"><g transform="scale(8.53333,8.53333)"><path d="M5.82227,0.01172c-1,0 -1.82031,0.82031 -1.82031,1.82031v4.28906c0,1 0.82031,1.82031 1.82031,1.82031h6.35938c1,0 1.82031,-0.82031 1.82031,-1.82031v-4.28906c0,-1 -0.82031,-1.82031 -1.82031,-1.82031zM6.00195,2.01172h6v3.92969h-6zM8,7.94336v15c0,1.654 1.346,3 3,3h5h0.00195v1.16797c0,1.01 0.82008,1.83008 1.83008,1.83008h6.33984c1.01,0 1.83008,-0.82008 1.83008,-1.83008v-4.33984c0,-1.01 -0.82008,-1.83008 -1.83008,-1.83008h-6.33984c-1.01,0 -1.83008,0.82008 -1.83008,1.83008v1.16992h1v2h-0.00195v-1.99805h-1h-5c-0.552,0 -1,-0.448 -1,-1v-7h6v-2h-6v-6zM17.83203,10.94141c-1.01,0 -1.83008,0.82008 -1.83008,1.83008v4.33984c0,1.01 0.82008,1.83008 1.83008,1.83008h6.33984c1.01,0 1.83008,-0.82008 1.83008,-1.83008v-4.33984c0,-1.01 -0.82008,-1.83008 -1.83008,-1.83008zM18.00195,12.94141h6v4h-0.00195v-3.99805h-5.99805zM18.00195,22.94141h6v4h-0.00195v-3.99805h-5.99805z"></path></g></g></svg>