<svg xmlns="http://www.w3.org/2000/svg" xmlns:xlink="http://www.w3.org/1999/xlink" viewBox="0,0,255.99609,255.99609" width="48px" height="48px" fill-rule="nonzero"><g fill="#ff6370" fill-rule="nonzero" stroke="none" stroke-width="1" stroke-linecap="butt" stroke-linejoin="miter" stroke-miterlimit="10" stroke-dasharray="" stroke-dashoffset="0" font-family="none" font-weight="none" font-size="none" text-anchor="none" style="mix-blend-mode: normal"><g transform="scale(5.33333,5.33333)"><path d="M24,4c-11.028,0 -20,8.972 -20,20c0,11.028 8.972,20 20,20c11.028,0 20,-8.972 20,-20c0,-11.028 -8.972,-20 -20,-20zM28.561,30.561c-0.293,0.293 -0.677,0.439 -1.061,0.439c-0.384,0 -0.768,-0.146 -1.061,-0.439l-5,-5c-0.281,-0.282 -0.439,-0.663 -0.439,-1.061v-11c0,-0.829 0.671,-1.5 1.5,-1.5c0.829,0 1.5,0.671 1.5,1.5v10.379l4.561,4.561c0.585,0.585 0.585,1.535 0,2.121z"></path></g></g></svg>