<svg xmlns="http://www.w3.org/2000/svg" xmlns:xlink="http://www.w3.org/1999/xlink" viewBox="0,0,255.99609,255.99609" width="24px" height="24px" fill-rule="nonzero"><g fill="#5f6165" fill-rule="nonzero" stroke="none" stroke-width="1" stroke-linecap="butt" stroke-linejoin="miter" stroke-miterlimit="10" stroke-dasharray="" stroke-dashoffset="0" font-family="none" font-weight="none" font-size="none" text-anchor="none" style="mix-blend-mode: normal"><g transform="scale(8.53333,8.53333)"><path d="M4,7c-1.64497,0 -3,1.35503 -3,3v9c0,1.64497 1.35503,3 3,3h20c1.64497,0 3,-1.35503 3,-3v-9c0,-1.64497 -1.35503,-3 -3,-3zM4,9h20c0.56503,0 1,0.43497 1,1v9c0,0.56503 -0.43497,1 -1,1h-20c-0.56503,0 -1,-0.43497 -1,-1v-9c0,-0.56503 0.43497,-1 1,-1zM5,11v7h9v-7zM28,12v5h1c0.552,0 1,-0.448 1,-1v-3c0,-0.552 -0.448,-1 -1,-1z"></path></g></g></svg>