<svg xmlns="http://www.w3.org/2000/svg" xmlns:xlink="http://www.w3.org/1999/xlink" viewBox="0,0,255.99609,255.99609" width="30px" height="30px" fill-rule="nonzero"><g fill="#5f6165" fill-rule="nonzero" stroke="none" stroke-width="1" stroke-linecap="butt" stroke-linejoin="miter" stroke-miterlimit="10" stroke-dasharray="" stroke-dashoffset="0" font-family="none" font-weight="none" font-size="none" text-anchor="none" style="mix-blend-mode: normal"><g transform="scale(5.33333,5.33333)"><path d="M10.5,6c-2.4675,0 -4.5,2.0325 -4.5,4.5v8c0,2.4675 2.0325,4.5 4.5,4.5h8c2.4675,0 4.5,-2.0325 4.5,-4.5v-8c0,-2.4675 -2.0325,-4.5 -4.5,-4.5zM29.5,6c-2.4675,0 -4.5,2.0325 -4.5,4.5v8c0,2.4675 2.0325,4.5 4.5,4.5h8c2.4675,0 4.5,-2.0325 4.5,-4.5v-8c0,-2.4675 -2.0325,-4.5 -4.5,-4.5zM10.5,9h8c0.8465,0 1.5,0.6535 1.5,1.5v8c0,0.8465 -0.6535,1.5 -1.5,1.5h-8c-0.8465,0 -1.5,-0.6535 -1.5,-1.5v-8c0,-0.8465 0.6535,-1.5 1.5,-1.5zM29.5,9h8c0.8465,0 1.5,0.6535 1.5,1.5v8c0,0.8465 -0.6535,1.5 -1.5,1.5h-8c-0.8465,0 -1.5,-0.6535 -1.5,-1.5v-8c0,-0.8465 0.6535,-1.5 1.5,-1.5zM10.5,25c-2.4675,0 -4.5,2.0325 -4.5,4.5v8c0,2.4675 2.0325,4.5 4.5,4.5h8c2.4675,0 4.5,-2.0325 4.5,-4.5v-8c0,-2.4675 -2.0325,-4.5 -4.5,-4.5zM29.5,25c-2.4675,0 -4.5,2.0325 -4.5,4.5v8c0,2.4675 2.0325,4.5 4.5,4.5h8c2.4675,0 4.5,-2.0325 4.5,-4.5v-8c0,-2.4675 -2.0325,-4.5 -4.5,-4.5zM10.5,28h8c0.8465,0 1.5,0.6535 1.5,1.5v8c0,0.8465 -0.6535,1.5 -1.5,1.5h-8c-0.8465,0 -1.5,-0.6535 -1.5,-1.5v-8c0,-0.8465 0.6535,-1.5 1.5,-1.5zM29.5,28h8c0.8465,0 1.5,0.6535 1.5,1.5v8c0,0.8465 -0.6535,1.5 -1.5,1.5h-8c-0.8465,0 -1.5,-0.6535 -1.5,-1.5v-8c0,-0.8465 0.6535,-1.5 1.5,-1.5z"></path></g></g></svg>