<svg xmlns="http://www.w3.org/2000/svg" xmlns:xlink="http://www.w3.org/1999/xlink" viewBox="0,0,255.99609,255.99609" width="50px" height="50px" fill-rule="nonzero"><g fill="#5f6165" fill-rule="nonzero" stroke="none" stroke-width="1" stroke-linecap="butt" stroke-linejoin="miter" stroke-miterlimit="10" stroke-dasharray="" stroke-dashoffset="0" font-family="none" font-weight="none" font-size="none" text-anchor="none" style="mix-blend-mode: normal"><g transform="scale(5.12,5.12)"><path d="M7,9c-2.75,0 -5,2.25 -5,5v22c0,2.75 2.25,5 5,5h36c2.75,0 5,-2.25 5,-5v-22c0,-2.75 -2.25,-5 -5,-5zM7,11h36c1.66797,0 3,1.33203 3,3v2h-42v-2c0,-1.66797 1.33203,-3 3,-3zM4,21h42v15c0,1.66797 -1.33203,3 -3,3h-36c-1.66797,0 -3,-1.33203 -3,-3zM9,24v2h16v-2z"></path></g></g></svg>