<svg xmlns="http://www.w3.org/2000/svg" xmlns:xlink="http://www.w3.org/1999/xlink" viewBox="0,0,255.99609,255.99609" width="30px" height="30px" fill-rule="nonzero"><g fill="#5f6165" fill-rule="nonzero" stroke="none" stroke-width="1" stroke-linecap="butt" stroke-linejoin="miter" stroke-miterlimit="10" stroke-dasharray="" stroke-dashoffset="0" font-family="none" font-weight="none" font-size="none" text-anchor="none" style="mix-blend-mode: normal"><g transform="scale(8.53333,8.53333)"><path d="M3,4c-0.55226,0.00006 -0.99994,0.44774 -1,1v2.27734c-0.59563,0.34627 -1,0.98371 -1,1.72266v14.04492c0,1.073 0.85478,1.94919 1.92578,1.99219c4.81497,0.19606 8.28336,1.09148 10.23633,1.74609c0.31368,0.73705 1.03687,1.21584 1.83789,1.2168c0.80173,-0.00017 1.52588,-0.47909 1.83984,-1.2168c1.95326,-0.65448 5.4207,-1.54875 10.23438,-1.74414c1.071,-0.044 1.92578,-0.92114 1.92578,-1.99414v-14.04492c0,-0.73895 -0.40437,-1.37639 -1,-1.72266v-2.27734c-0.00006,-0.55226 -0.44774,-0.99994 -1,-1c-4.57407,0 -7.66159,0.50754 -9.63281,1.0332c-1.59714,0.4259 -2.07276,0.75296 -2.36719,0.91992c-0.29442,-0.16696 -0.77005,-0.49402 -2.36719,-0.91992c-1.97122,-0.52566 -5.05874,-1.0332 -9.63281,-1.0332zM4,6.05469c3.78199,0.07687 6.49864,0.4805 8.11719,0.91211c0.97999,0.26133 1.53543,0.47746 1.88281,0.63672v15.96875c-1.56231,-0.52984 -4.85504,-1.38896 -10,-1.51172zM26,6.05469v16.00586c-5.14496,0.12276 -8.43769,0.98188 -10,1.51172v-15.96875c0.34738,-0.15926 0.90282,-0.37539 1.88281,-0.63672c1.61855,-0.43161 4.3352,-0.83524 8.11719,-0.91211z"></path></g></g></svg>