<svg xmlns="http://www.w3.org/2000/svg" xmlns:xlink="http://www.w3.org/1999/xlink" viewBox="0,0,255.99609,255.99609" width="48px" height="48px" fill-rule="nonzero"><g fill="#ffffff" fill-rule="nonzero" stroke="none" stroke-width="1" stroke-linecap="butt" stroke-linejoin="miter" stroke-miterlimit="10" stroke-dasharray="" stroke-dashoffset="0" font-family="none" font-weight="none" font-size="none" text-anchor="none" style="mix-blend-mode: normal"><g transform="scale(10.66667,10.66667)"><path d="M20,2c-0.5717,0.00039 -1.11591,0.24543 -1.49517,0.67322c-0.37926,0.42779 -0.55732,0.99743 -0.48921,1.56506l-5.23242,3.92383c-0.24749,-0.10622 -0.51388,-0.16136 -0.7832,-0.16211c-0.4631,0.00014 -0.9118,0.16098 -1.26953,0.45508l-4.75977,-1.7832c-0.16031,-0.96387 -0.9936,-1.6708 -1.9707,-1.67187c-1.10457,0 -2,0.89543 -2,2c0,1.10457 0.89543,2 2,2c0.46334,-0.00069 0.91207,-0.16223 1.26953,-0.45703l4.75977,1.78516c0.16031,0.96387 0.9936,1.6708 1.9707,1.67188c0.5717,-0.00039 1.11591,-0.24543 1.49517,-0.67322c0.37926,-0.42779 0.55732,-0.99743 0.48921,-1.56506l5.23242,-3.92383c0.24749,0.10622 0.51388,0.16136 0.7832,0.16211c1.10457,0 2,-0.89543 2,-2c0,-1.10457 -0.89543,-2 -2,-2zM18.75,9c-0.95506,0 -1.75,0.79494 -1.75,1.75v8.5c0,0.95506 0.79494,1.75 1.75,1.75h2.5c0.95506,0 1.75,-0.79494 1.75,-1.75v-8.5c0,-0.95506 -0.79494,-1.75 -1.75,-1.75zM19,11h2v8h-2zM2.75,12c-0.95506,0 -1.75,0.79494 -1.75,1.75v5.5c0,0.95506 0.79494,1.75 1.75,1.75h2.5c0.95506,0 1.75,-0.79494 1.75,-1.75v-5.5c0,-0.95506 -0.79494,-1.75 -1.75,-1.75zM3,14h2v5h-2zM10.75,14c-0.95506,0 -1.75,0.79494 -1.75,1.75v3.5c0,0.95506 0.79494,1.75 1.75,1.75h2.5c0.95506,0 1.75,-0.79494 1.75,-1.75v-3.5c0,-0.95506 -0.79494,-1.75 -1.75,-1.75zM11,16h2v3h-2z"></path></g></g></svg>