<svg xmlns="http://www.w3.org/2000/svg" xmlns:xlink="http://www.w3.org/1999/xlink" viewBox="0,0,255.99609,255.99609" width="30px" height="30px" fill-rule="nonzero"><g fill="#5f6165" fill-rule="nonzero" stroke="none" stroke-width="1" stroke-linecap="butt" stroke-linejoin="miter" stroke-miterlimit="10" stroke-dasharray="" stroke-dashoffset="0" font-family="none" font-weight="none" font-size="none" text-anchor="none" style="mix-blend-mode: normal"><g transform="scale(8,8)"><path d="M16,3c-7.16786,0 -13,5.83214 -13,13c0,7.16786 5.83214,13 13,13c7.16786,0 13,-5.83214 13,-13c0,-7.16786 -5.83214,-13 -13,-13zM16,5c6.08698,0 11,4.91302 11,11c0,6.08698 -4.91302,11 -11,11c-6.08698,0 -11,-4.91302 -11,-11c0,-6.08698 4.91302,-11 11,-11zM16,9c-0.55228,0 -1,0.44772 -1,1c0,0.55228 0.44772,1 1,1c0.55228,0 1,-0.44772 1,-1c0,-0.55228 -0.44772,-1 -1,-1zM15.98438,12.98633c-0.55152,0.00862 -0.99193,0.46214 -0.98437,1.01367v8c-0.0051,0.36064 0.18438,0.69608 0.49587,0.87789c0.3115,0.18181 0.69676,0.18181 1.00825,0c0.3115,-0.18181 0.50097,-0.51725 0.49587,-0.87789v-8c0.0037,-0.2703 -0.10218,-0.53059 -0.29351,-0.72155c-0.19133,-0.19097 -0.45182,-0.29634 -0.72212,-0.29212z"></path></g></g></svg>