<svg xmlns="http://www.w3.org/2000/svg" xmlns:xlink="http://www.w3.org/1999/xlink" viewBox="0,0,255.99609,255.99609" width="30px" height="30px" fill-rule="nonzero"><g fill="#5f6165" fill-rule="nonzero" stroke="none" stroke-width="1" stroke-linecap="butt" stroke-linejoin="miter" stroke-miterlimit="10" stroke-dasharray="" stroke-dashoffset="0" font-family="none" font-weight="none" font-size="none" text-anchor="none" style="mix-blend-mode: normal"><g transform="scale(8.53333,8.53333)"><path d="M15.00195,0.00195c-1.65,0 -3,1.35 -3,3h-4c-1.65,0 -3,1.35 -3,3v18c0,1.64 1.35,3 3,3h6.96094c-0.31,-0.63 -0.5607,-1.3 -0.7207,-2h-6.24023c-0.57,0 -1,-0.44 -1,-1v-18c0,-0.57 0.43,-1 1,-1h4v1c0,0.55 0.45,1 1,1h4c0.55,0 1,-0.45 1,-1v-1h4c0.56,0 1,0.43 1,1v7.98828h0.00977c0.68,0 1.35023,0.08047 1.99023,0.23047v-8.21875c0,-1.65 -1.36,-3 -3,-3h-4c0,-1.65 -1.36,-3 -3,-3zM15.00195,2.00195c0.56,0 1,0.43 1,1c0,0.56 -0.44,1 -1,1c-0.57,0 -1,-0.44 -1,-1c0,-0.57 0.43,-1 1,-1zM23.00195,16.00195c-0.27,0 -0.50945,0.1093 -0.68945,0.2793c-0.19,0.18 -0.31055,0.4307 -0.31055,0.7207v1c-0.01,0.55 0.44023,0.99977 0.99023,1.00977c0.48,0 0.90023,-0.34055 0.99023,-0.81055c2.28,0.46 4.01953,2.37078 4.01953,4.80078c0,2.77 -2.23,5 -5,5c-2.78,0 -5,-2.23 -5,-5c0,-1.39 0.56094,-2.63102 1.46094,-3.54102c0.4,-0.38 0.4093,-1.01016 0.0293,-1.41016c-0.2,-0.21 -0.4607,-0.31055 -0.7207,-0.31055c-0.25,0 -0.49945,0.09125 -0.68945,0.28125l-0.0293,0.0293c-1.27,1.27 -2.05078,3.02117 -2.05078,4.95117c0,3.85 3.14,7 7,7c3.85,0 7,-3.15 7,-7c0,-3.86 -3.15,-7 -7,-7zM21.48242,20.49023c-0.55,-0.01 -1,0.44023 -1,0.99023c0,0.28 0.11055,0.5407 0.31055,0.7207l1.5,1.50977c0.38,0.39 1.01992,0.40953 1.41992,0.01953c0.39,-0.38 0.40953,-1.01016 0.01953,-1.41016c-0.01,-0.01 -0.00953,-0.0193 -0.01953,-0.0293l-1.51172,-1.5c-0.19,-0.2 -0.43875,-0.31078 -0.71875,-0.30078z"></path></g></g></svg>