<svg xmlns="http://www.w3.org/2000/svg" xmlns:xlink="http://www.w3.org/1999/xlink" viewBox="0,0,255.99609,255.99609" width="30px" height="30px" fill-rule="nonzero"><g fill="#5f6165" fill-rule="nonzero" stroke="none" stroke-width="1" stroke-linecap="butt" stroke-linejoin="miter" stroke-miterlimit="10" stroke-dasharray="" stroke-dashoffset="0" font-family="none" font-weight="none" font-size="none" text-anchor="none" style="mix-blend-mode: normal"><g transform="scale(8,8)"><path d="M24,3h-16c-0.553,0 -1,0.447 -1,1c0,0.553 0.447,1 1,1h1.586l3.707,3.707c0.187,0.188 0.441,0.293 0.707,0.293h4c0.266,0 0.52,-0.105 0.707,-0.293l3.707,-3.707h1.586c0.553,0 1,-0.447 1,-1c0,-0.553 -0.447,-1 -1,-1zM17.586,7h-3.172l-2,-2h7.172zM22.317,20c-1.124,-2.363 -3.527,-4 -6.317,-4c-2.79,0 -5.193,1.637 -6.317,4h-3.183v6h3.183c1.124,2.363 3.527,4 6.317,4c2.79,0 5.193,-1.637 6.317,-4h3.183v-6zM13.036,25.866c-0.478,0.276 -1.09,0.112 -1.366,-0.366c-0.276,-0.478 -0.112,-1.09 0.366,-1.366c0.478,-0.276 1.09,-0.112 1.366,0.366c0.276,0.478 0.112,1.09 -0.366,1.366zM13.402,21.5c-0.276,0.478 -0.888,0.642 -1.366,0.366c-0.478,-0.276 -0.642,-0.888 -0.366,-1.366c0.276,-0.478 0.888,-0.642 1.366,-0.366c0.478,0.276 0.642,0.888 0.366,1.366zM16,28c-0.552,0 -1,-0.448 -1,-1c0,-0.552 0.448,-1 1,-1c0.552,0 1,0.448 1,1c0,0.552 -0.448,1 -1,1zM16,20c-0.552,0 -1,-0.448 -1,-1c0,-0.552 0.448,-1 1,-1c0.552,0 1,0.448 1,1c0,0.552 -0.448,1 -1,1zM20.33,25.5c-0.276,0.478 -0.888,0.642 -1.366,0.366c-0.478,-0.276 -0.642,-0.888 -0.366,-1.366c0.276,-0.478 0.888,-0.642 1.366,-0.366c0.478,0.276 0.642,0.888 0.366,1.366zM19.964,21.866c-0.478,0.276 -1.09,0.112 -1.366,-0.366c-0.276,-0.478 -0.112,-1.09 0.366,-1.366c0.478,-0.276 1.09,-0.112 1.366,0.366c0.276,0.478 0.112,1.09 -0.366,1.366zM2.5,19h2c0.276,0 0.5,0.224 0.5,0.5v7c0,0.276 -0.224,0.5 -0.5,0.5h-2c-0.276,0 -0.5,-0.224 -0.5,-0.5v-7c0,-0.276 0.224,-0.5 0.5,-0.5zM27.5,19h2c0.276,0 0.5,0.224 0.5,0.5v7c0,0.276 -0.224,0.5 -0.5,0.5h-2c-0.276,0 -0.5,-0.224 -0.5,-0.5v-7c0,-0.276 0.224,-0.5 0.5,-0.5zM19,12.5v2.564c-0.946,-0.361 -1.959,-0.564 -3,-0.564c-1.041,0 -2.054,0.203 -3,0.564v-2.564c0,-0.276 0.224,-0.5 0.5,-0.5h1.5v-1.5h2v1.5h1.5c0.276,0 0.5,0.224 0.5,0.5z"></path></g></g></svg>