<svg xmlns="http://www.w3.org/2000/svg"  viewBox="0 0 32 32" width="30px" height="30px"><path d="M 10.984375 3.9863281 A 1.0001 1.0001 0 0 0 10 5 L 10 6.0996094 C 8.97289 6.2772404 7.9455154 6.4361757 6.9199219 6.7050781 C 5.8513673 6.9849031 4.9911574 7.7888637 4.6523438 8.8476562 C 2.9204396 14.263868 2.9204395 19.736132 4.6523438 25.152344 C 4.9914115 26.211931 5.8523937 27.014986 6.9199219 27.294922 C 12.963099 28.879395 19.036901 28.879395 25.080078 27.294922 C 26.147821 27.014929 27.007709 26.212073 27.347656 25.154297 A 1.0001 1.0001 0 0 0 27.347656 25.152344 C 29.07956 19.736132 29.07956 14.263868 27.347656 8.8476562 C 27.008588 7.7881163 26.147606 6.9850142 25.080078 6.7050781 C 24.054485 6.4361757 23.02711 6.2772404 22 6.0996094 L 22 5 A 1.0001 1.0001 0 1 0 20 5 L 20 5.7773438 C 17.333906 5.4702507 14.666094 5.4702507 12 5.7773438 L 12 5 A 1.0001 1.0001 0 0 0 10.984375 3.9863281 z M 16 7.5136719 C 17.333087 7.5136719 18.666055 7.6117039 20 7.7753906 L 20 9 A 1.0001 1.0001 0 1 0 22 9 L 22 8.1328125 C 22.857584 8.2904571 23.715345 8.4134822 24.574219 8.6386719 C 24.978691 8.7447358 25.318427 9.0666183 25.443359 9.4570312 C 27.057455 14.504819 27.057455 19.495181 25.443359 24.542969 C 25.317307 24.935193 24.978476 25.255321 24.574219 25.361328 C 18.847396 26.862855 13.152604 26.862855 7.4257812 25.361328 C 7.0213095 25.255264 6.6815728 24.933382 6.5566406 24.542969 C 4.9425448 19.495181 4.9425448 14.504819 6.5566406 9.4570312 C 6.681827 9.0658239 7.0203358 8.7448469 7.4257812 8.6386719 C 8.2846545 8.4134822 9.1424156 8.2904571 10 8.1328125 L 10 9 A 1.0001 1.0001 0 1 0 12 9 L 12 7.7753906 C 13.333945 7.6117042 14.666913 7.5136719 16 7.5136719 z M 18 13 A 1.0001 1.0001 0 1 0 18 15 L 22 15 A 1.0001 1.0001 0 1 0 22 13 L 18 13 z M 10 17 A 1.0001 1.0001 0 1 0 10 19 L 15 19 A 1.0001 1.0001 0 1 0 15 17 L 10 17 z M 13 21 A 1.0001 1.0001 0 1 0 13 23 L 20 23 A 1.0001 1.0001 0 1 0 20 21 L 13 21 z"/></svg>