<svg xmlns="http://www.w3.org/2000/svg" xmlns:xlink="http://www.w3.org/1999/xlink" viewBox="0,0,255.99609,255.99609" width="24px" height="24px" fill-rule="nonzero"><g fill="#5f6165" fill-rule="nonzero" stroke="none" stroke-width="1" stroke-linecap="butt" stroke-linejoin="miter" stroke-miterlimit="10" stroke-dasharray="" stroke-dashoffset="0" font-family="none" font-weight="none" font-size="none" text-anchor="none" style="mix-blend-mode: normal"><g transform="scale(10.66667,10.66667)"><path d="M11.5,2c-5.24,0 -9.5,4.26 -9.5,9.5c0,5.24 4.26,9.5 9.5,9.5c0.69,0 1.36,-0.07094 2,-0.21094c-0.27,-0.59 -0.44047,-1.24945 -0.48047,-1.93945c-0.49,0.1 -0.99953,0.15039 -1.51953,0.15039c-4.14,0 -7.5,-3.36 -7.5,-7.5c0,-4.14 3.36,-7.5 7.5,-7.5c3.85,0 7.01945,2.90086 7.43945,6.63086c0.77,0.1 1.46141,0.50891 1.94141,1.12891c0.04,0.05 0.07937,0.10039 0.10938,0.15039c0.01,-0.14 0.00977,-0.27016 0.00977,-0.41016c0,-5.24 -4.26,-9.5 -9.5,-9.5zM11.5,6c-2.38507,0 -4.43114,1.52668 -5.1875,3.66602c-0.18445,0.521 0.08837,1.09289 0.60938,1.27734c0.521,0.18445 1.09289,-0.08837 1.27734,-0.60938c0.47964,-1.35666 1.76785,-2.33398 3.30078,-2.33398c0.39823,0 0.77945,0.06802 1.13477,0.18945l-1.94922,2.72852c-0.32145,0.44981 -0.21739,1.07504 0.23242,1.39648c0.44981,0.32145 1.07504,0.21739 1.39648,-0.23242l1.94727,-2.72656c0.22784,0.29351 0.41288,0.62161 0.53906,0.97852c0.18445,0.521 0.75634,0.79383 1.27734,0.60938c0.521,-0.18445 0.79383,-0.75634 0.60938,-1.27734c-0.75636,-2.13934 -2.80243,-3.66602 -5.1875,-3.66602zM18.5,12.58984c-0.29662,0 -0.59342,0.13058 -0.79492,0.39258c-1.032,1.345 -2.70508,3.78958 -2.70508,5.51758c0,1.933 1.567,3.5 3.5,3.5c1.933,0 3.5,-1.567 3.5,-3.5c0,-1.728 -1.67208,-4.17258 -2.70508,-5.51758c-0.201,-0.262 -0.4983,-0.39258 -0.79492,-0.39258z"></path></g></g></svg>