<svg xmlns="http://www.w3.org/2000/svg"  viewBox="0 0 24 24" width="24px" height="24px"><path d="M 12 0 C 9.789063 0 8 1.789063 8 4 L 8 11.4375 C 6.222656 12.699219 5 14.691406 5 17 C 5 20.84375 8.15625 24 12 24 C 15.84375 24 19 20.84375 19 17 C 19 14.691406 17.777344 12.699219 16 11.4375 L 16 10 L 18 10 L 18 8 L 16 8 L 16 7 L 18 7 L 18 5 L 16 5 L 16 4 C 16 1.789063 14.210938 0 12 0 Z M 12 2 C 13.191406 2 14 2.808594 14 4 L 14 12.375 L 14.5 12.6875 C 15.96875 13.503906 17 15.164063 17 17 C 17 19.753906 14.753906 22 12 22 C 9.246094 22 7 19.753906 7 17 C 7 15.164063 8.03125 13.503906 9.5 12.6875 L 10 12.375 L 10 4 C 10 2.808594 10.808594 2 12 2 Z M 11 5 L 11 13.65625 C 9.550781 14.085938 8.5 15.414063 8.5 17 C 8.5 18.933594 10.066406 20.5 12 20.5 C 13.933594 20.5 15.5 18.933594 15.5 17 C 15.5 15.414063 14.449219 14.085938 13 13.65625 L 13 5 Z"/></svg>